<svg xmlns="http://www.w3.org/2000/svg" viewBox="0 0 600 360" role="img" aria-labelledby="titulo descripcion">
  <title id="titulo">Observa el paisaje</title>
  <desc id="descripcion">Un cauce sinuoso con agua que fluye entre orillas cubiertas de árboles. Ilustración educativa, sin escala.</desc>
  <defs><g id="arbol"><path d="M0 0v32" stroke="#705034" stroke-width="8"/><ellipse cy="-16" rx="26" ry="35" fill="#427450"/></g></defs>
  <rect width="600" height="360" rx="16" fill="#dce8d4"/>
  <path d="M70-25Q145 68 300 65Q479 59 406 172Q335 252 147 204Q67 181 117 295Q147 350 260 390" fill="none" stroke="#f0ebd6" stroke-width="80"/>
  <path d="M70-25Q145 68 300 65Q479 59 406 172Q335 252 147 204Q67 181 117 295Q147 350 260 390" fill="none" stroke="#62a4a9" stroke-width="56"/>
  <g><use href="#arbol" x="38" y="135"/><use href="#arbol" x="94" y="140"/><use href="#arbol" x="158" y="143"/><use href="#arbol" x="515" y="78"/><use href="#arbol" x="553" y="141"/><use href="#arbol" x="483" y="212"/><use href="#arbol" x="549" y="244"/><use href="#arbol" x="380" y="300"/><use href="#arbol" x="443" y="326"/><use href="#arbol" x="36" y="282"/></g>
  <path d="m290 68 30 0m-10-10 10 10-10 10M284 223h-30m10-10-10 10 10 10" fill="none" stroke="#24656b" stroke-width="4"/>
</svg>
